<svg width="542" height="28" viewBox="0 0 542 28" fill="none" xmlns="http://www.w3.org/2000/svg">
<rect y="14" width="542" height="1" fill="#F0F2F5"/>
<rect width="26" height="20" transform="translate(257.5 4)" fill="white"/>
<path d="M266.534 22.22L266.282 21.072C266.842 20.9973 267.355 20.89 267.822 20.75C268.298 20.6193 268.704 20.428 269.04 20.176C269.385 19.924 269.651 19.5927 269.838 19.182C270.024 18.7713 270.118 18.258 270.118 17.642C270.118 17.3527 270.09 17.0773 270.034 16.816C269.978 16.5453 269.894 16.3073 269.782 16.102C269.67 15.8967 269.534 15.7333 269.376 15.612C269.226 15.4907 269.054 15.43 268.858 15.43C268.643 15.43 268.447 15.514 268.27 15.682C268.102 15.8407 267.966 16.046 267.864 16.298C267.77 16.55 267.724 16.802 267.724 17.054C267.724 17.25 267.761 17.4227 267.836 17.572C267.92 17.712 268.055 17.8193 268.242 17.894C268.428 17.9687 268.671 18.006 268.97 18.006C269.24 18.006 269.511 17.978 269.782 17.922C270.062 17.866 270.3 17.7913 270.496 17.698L270.552 18.678C270.328 18.8367 270.062 18.9487 269.754 19.014C269.455 19.0793 269.152 19.112 268.844 19.112C268.489 19.112 268.172 19.0747 267.892 19C267.621 18.9253 267.388 18.818 267.192 18.678C267.005 18.5287 266.86 18.342 266.758 18.118C266.664 17.894 266.618 17.6327 266.618 17.334C266.618 16.9793 266.674 16.6247 266.786 16.27C266.898 15.906 267.056 15.5747 267.262 15.276C267.467 14.9773 267.714 14.7393 268.004 14.562C268.293 14.3753 268.615 14.282 268.97 14.282C269.343 14.282 269.67 14.38 269.95 14.576C270.23 14.7627 270.463 15.0193 270.65 15.346C270.836 15.6727 270.976 16.0413 271.07 16.452C271.163 16.8627 271.21 17.2873 271.21 17.726C271.21 18.594 271.032 19.3407 270.678 19.966C270.332 20.6007 269.81 21.1047 269.11 21.478C268.419 21.8513 267.56 22.0987 266.534 22.22ZM273.229 19L272.991 9.984H274.125L274.363 19H273.229ZM272.305 9.144L272.137 8.388C272.38 8.332 272.576 8.28533 272.725 8.248C272.875 8.21067 273.043 8.16867 273.229 8.122L273.159 8.416C272.917 8.34133 272.683 8.18267 272.459 7.94C272.245 7.69733 272.137 7.422 272.137 7.114C272.137 6.834 272.203 6.60067 272.333 6.414C272.473 6.218 272.651 6.07333 272.865 5.98C273.089 5.88667 273.327 5.84 273.579 5.84C273.682 5.84 273.789 5.84933 273.901 5.868C274.023 5.88667 274.135 5.91467 274.237 5.952L274.125 6.652C274.032 6.63333 273.943 6.61467 273.859 6.596C273.775 6.57733 273.682 6.568 273.579 6.568C273.365 6.568 273.197 6.61467 273.075 6.708C272.954 6.792 272.893 6.91333 272.893 7.072C272.893 7.268 272.954 7.436 273.075 7.576C273.206 7.716 273.351 7.828 273.509 7.912C273.677 7.98667 273.813 8.024 273.915 8.024L273.341 8.08C273.593 8.01467 273.827 7.94933 274.041 7.884C274.265 7.80933 274.466 7.73933 274.643 7.674L274.867 8.388C274.643 8.472 274.377 8.56067 274.069 8.654C273.771 8.74733 273.467 8.836 273.159 8.92C272.851 9.004 272.567 9.07867 272.305 9.144Z" fill="#667185"/>
</svg>
