<svg width="57" height="21" viewBox="0 0 57 21" fill="none" xmlns="http://www.w3.org/2000/svg">
<rect width="57" height="21" fill="white"/>
<path fill-rule="evenodd" clip-rule="evenodd" d="M6.98235 7.35438L7.6821 9.44736L9.61697 9.56767C9.71239 9.5729 9.80427 9.61278 9.88084 9.68079C9.95682 9.74879 10.014 9.84229 10.044 9.94887C10.074 10.0554 10.0764 10.1705 10.0499 10.2784C10.0234 10.3863 9.96978 10.4824 9.89616 10.5543L8.39007 11.9699L8.89309 14.1459C8.91723 14.2558 8.91194 14.3715 8.87836 14.4774C8.84538 14.584 8.78529 14.6755 8.70695 14.7416C8.62803 14.8076 8.53438 14.8436 8.43837 14.8462C8.34178 14.8482 8.24694 14.8168 8.16566 14.7546L6.53413 13.528L4.90612 14.7455C4.82602 14.8076 4.73178 14.8403 4.63519 14.839C4.53918 14.837 4.44553 14.8017 4.3666 14.7377C4.28768 14.6729 4.2276 14.582 4.19343 14.4761C4.15927 14.3708 4.15279 14.2558 4.17517 14.1459L4.67407 11.9791L3.1721 10.5543C3.09847 10.4824 3.04488 10.3863 3.01838 10.2784C2.99187 10.1705 2.99422 10.0554 3.02425 9.94887C3.05429 9.84229 3.11143 9.74879 3.18741 9.68079C3.26398 9.61278 3.35587 9.5729 3.45129 9.56767L5.38616 9.44736L6.08591 7.35438C6.12183 7.24977 6.18425 7.1602 6.26377 7.09678C6.34387 7.03401 6.43812 7 6.53413 7C6.63014 7 6.72438 7.03401 6.80449 7.09678C6.884 7.1602 6.94642 7.24977 6.98235 7.35438Z" fill="#108A00" stroke="#108A00" stroke-width="1.04875" stroke-linecap="round" stroke-linejoin="round"/>
<path fill-rule="evenodd" clip-rule="evenodd" d="M18.3107 7.35438L19.0105 9.44736L20.9453 9.56767C21.0408 9.5729 21.1326 9.61278 21.2092 9.68079C21.2852 9.74879 21.3423 9.84229 21.3724 9.94887C21.4024 10.0554 21.4048 10.1705 21.3782 10.2784C21.3517 10.3863 21.2982 10.4824 21.2245 10.5543L19.7184 11.9699L20.2215 14.1459C20.2456 14.2558 20.2403 14.3715 20.2067 14.4774C20.1737 14.584 20.1137 14.6755 20.0353 14.7416C19.9564 14.8076 19.8628 14.8436 19.7667 14.8462C19.6701 14.8482 19.5753 14.8168 19.494 14.7546L17.8625 13.528L16.2345 14.7455C16.1544 14.8076 16.0602 14.8403 15.9636 14.839C15.8675 14.837 15.7739 14.8017 15.695 14.7377C15.616 14.6729 15.556 14.582 15.5218 14.4761C15.4876 14.3708 15.4812 14.2558 15.5035 14.1459L16.0024 11.9791L14.5005 10.5543C14.4268 10.4824 14.3733 10.3863 14.3467 10.2784C14.3202 10.1705 14.3226 10.0554 14.3526 9.94887C14.3827 9.84229 14.4398 9.74879 14.5158 9.68079C14.5924 9.61278 14.6842 9.5729 14.7797 9.56767L16.7145 9.44736L17.4143 7.35438C17.4502 7.24977 17.5126 7.1602 17.5921 7.09678C17.6722 7.03401 17.7665 7 17.8625 7C17.9585 7 18.0528 7.03401 18.1329 7.09678C18.2124 7.1602 18.2748 7.24977 18.3107 7.35438Z" fill="#108A00" stroke="#108A00" stroke-width="1.04875" stroke-linecap="round" stroke-linejoin="round"/>
<path fill-rule="evenodd" clip-rule="evenodd" d="M52.2956 7.35438L52.9953 9.44736L54.9302 9.56767C55.0256 9.5729 55.1175 9.61278 55.1941 9.68079C55.2701 9.74879 55.3272 9.84229 55.3572 9.94887C55.3873 10.0554 55.3896 10.1705 55.3631 10.2784C55.3366 10.3863 55.283 10.4824 55.2094 10.5543L53.7033 11.9699L54.2063 14.1459C54.2305 14.2558 54.2252 14.3715 54.1916 14.4774C54.1586 14.584 54.0985 14.6755 54.0202 14.7416C53.9413 14.8076 53.8476 14.8436 53.7516 14.8462C53.655 14.8482 53.5602 14.8168 53.4789 14.7546L51.8474 13.528L50.2194 14.7455C50.1392 14.8076 50.045 14.8403 49.9484 14.839C49.8524 14.837 49.7588 14.8017 49.6798 14.7377C49.6009 14.6729 49.5408 14.582 49.5067 14.4761C49.4725 14.3708 49.466 14.2558 49.4884 14.1459L49.9873 11.9791L48.4853 10.5543C48.4117 10.4824 48.3581 10.3863 48.3316 10.2784C48.3051 10.1705 48.3074 10.0554 48.3375 9.94887C48.3675 9.84229 48.4247 9.74879 48.5006 9.68079C48.5772 9.61278 48.6691 9.5729 48.7645 9.56767L50.6994 9.44736L51.3991 7.35438C51.4351 7.24977 51.4975 7.1602 51.577 7.09678C51.6571 7.03401 51.7514 7 51.8474 7C51.9434 7 52.0376 7.03401 52.1177 7.09678C52.1972 7.1602 52.2597 7.24977 52.2956 7.35438Z" fill="#108A00" stroke="#108A00" stroke-width="1.04875" stroke-linecap="round" stroke-linejoin="round"/>
<path fill-rule="evenodd" clip-rule="evenodd" d="M40.9672 7.35438L41.667 9.44736L43.6018 9.56767C43.6973 9.5729 43.7891 9.61278 43.8657 9.68079C43.9417 9.74879 43.9988 9.84229 44.0289 9.94887C44.0589 10.0554 44.0612 10.1705 44.0347 10.2784C44.0082 10.3863 43.9546 10.4824 43.881 10.5543L42.3749 11.9699L42.8779 14.1459C42.9021 14.2558 42.8968 14.3715 42.8632 14.4774C42.8302 14.584 42.7702 14.6755 42.6918 14.7416C42.6129 14.8076 42.5192 14.8436 42.4232 14.8462C42.3266 14.8482 42.2318 14.8168 42.1505 14.7546L40.519 13.528L38.891 14.7455C38.8109 14.8076 38.7166 14.8403 38.62 14.839C38.524 14.837 38.4304 14.8017 38.3515 14.7377C38.2725 14.6729 38.2125 14.582 38.1783 14.4761C38.1441 14.3708 38.1377 14.2558 38.16 14.1459L38.6589 11.9791L37.157 10.5543C37.0833 10.4824 37.0297 10.3863 37.0032 10.2784C36.9767 10.1705 36.9791 10.0554 37.0091 9.94887C37.0392 9.84229 37.0963 9.74879 37.1723 9.68079C37.2488 9.61278 37.3407 9.5729 37.4361 9.56767L39.371 9.44736L40.0708 7.35438C40.1067 7.24977 40.1691 7.1602 40.2486 7.09678C40.3287 7.03401 40.423 7 40.519 7C40.615 7 40.7092 7.03401 40.7894 7.09678C40.8689 7.1602 40.9313 7.24977 40.9672 7.35438Z" fill="#108A00" stroke="#108A00" stroke-width="1.04875" stroke-linecap="round" stroke-linejoin="round"/>
<path fill-rule="evenodd" clip-rule="evenodd" d="M29.6391 7.35438L30.3388 9.44736L32.2737 9.56767C32.3691 9.5729 32.461 9.61278 32.5376 9.68079C32.6136 9.74879 32.6707 9.84229 32.7007 9.94887C32.7308 10.0554 32.7331 10.1705 32.7066 10.2784C32.6801 10.3863 32.6265 10.4824 32.5529 10.5543L31.0468 11.9699L31.5498 14.1459C31.574 14.2558 31.5687 14.3715 31.5351 14.4774C31.5021 14.584 31.442 14.6755 31.3637 14.7416C31.2848 14.8076 31.1911 14.8436 31.0951 14.8462C30.9985 14.8482 30.9037 14.8168 30.8224 14.7546L29.1909 13.528L27.5629 14.7455C27.4828 14.8076 27.3885 14.8403 27.2919 14.839C27.1959 14.837 27.1023 14.8017 27.0233 14.7377C26.9444 14.6729 26.8843 14.582 26.8502 14.4761C26.816 14.3708 26.8095 14.2558 26.8319 14.1459L27.3308 11.9791L25.8288 10.5543C25.7552 10.4824 25.7016 10.3863 25.6751 10.2784C25.6486 10.1705 25.651 10.0554 25.681 9.94887C25.711 9.84229 25.7682 9.74879 25.8442 9.68079C25.9207 9.61278 26.0126 9.5729 26.108 9.56767L28.0429 9.44736L28.7426 7.35438C28.7786 7.24977 28.841 7.1602 28.9205 7.09678C29.0006 7.03401 29.0949 7 29.1909 7C29.2869 7 29.3811 7.03401 29.4612 7.09678C29.5407 7.1602 29.6032 7.24977 29.6391 7.35438Z" fill="#108A00" stroke="#108A00" stroke-width="1.04875" stroke-linecap="round" stroke-linejoin="round"/>
</svg>
