<svg width="24" height="25" viewBox="0 0 24 25" fill="none" xmlns="http://www.w3.org/2000/svg">
<path d="M10.2399 1.75674C10.7553 1.45915 11.34 1.30249 11.9352 1.30249C12.5303 1.30249 13.115 1.45915 13.6305 1.75674L20.5166 5.73215C21.0321 6.02972 21.4601 6.45773 21.7577 6.97314C22.0552 7.48855 22.2119 8.07321 22.2119 8.66836V16.6209C22.2119 17.216 22.0552 17.8007 21.7577 18.3161C21.4601 18.8315 21.0321 19.2595 20.5166 19.5571L13.6305 23.5325C13.115 23.8301 12.5303 23.9867 11.9352 23.9867C11.34 23.9867 10.7553 23.8301 10.2399 23.5325L3.35372 19.5571C2.8383 19.2595 2.4103 18.8315 2.11272 18.3161C1.81513 17.8007 1.65846 17.216 1.65845 16.6209V8.66836C1.65846 8.07321 1.81513 7.48855 2.11272 6.97314C2.4103 6.45773 2.8383 6.02972 3.35372 5.73215L10.2399 1.75674Z" fill="#17A8A8"/>
<path d="M12.5803 7.1705L13.5873 9.88379L16.3717 10.0398C16.5106 10.0475 16.6435 10.0988 16.7515 10.1864C16.8617 10.2745 16.9431 10.3958 16.9863 10.5339C17.0297 10.6726 17.0327 10.8208 16.9948 10.9611C16.9579 11.0996 16.8809 11.224 16.7735 11.3188L14.6053 13.1531L15.3292 15.974C15.3631 16.1164 15.3558 16.2655 15.308 16.4038C15.2614 16.5398 15.1756 16.659 15.0613 16.7462C14.9497 16.8306 14.8144 16.8776 14.6746 16.8807C14.5347 16.8837 14.3975 16.8426 14.2823 16.7632L11.9352 15.1739L9.59236 16.7522C9.47821 16.8321 9.34183 16.8741 9.2025 16.8723C9.06317 16.8705 8.92793 16.8249 8.81592 16.742C8.70115 16.6561 8.61442 16.5381 8.56672 16.403C8.51749 16.2657 8.50837 16.1172 8.54044 15.9749L9.25839 13.1658L7.09692 11.318C6.99 11.2233 6.91335 11.0991 6.87653 10.9611C6.8386 10.8208 6.84154 10.6726 6.88501 10.5339C6.92698 10.3975 7.00838 10.2766 7.11895 10.1864C7.22702 10.0989 7.35987 10.0476 7.4987 10.0398L10.2832 9.88379L11.2902 7.1705C11.3408 7.03644 11.4299 6.92028 11.5462 6.83654C11.6597 6.75548 11.7957 6.71191 11.9352 6.71191C12.0747 6.71191 12.2107 6.75548 12.3243 6.83654C12.4406 6.92028 12.5296 7.03644 12.5803 7.1705Z" stroke="white" stroke-width="1.27145" stroke-linecap="round" stroke-linejoin="round"/>
</svg>
